<mxfile host="app.diagrams.net" agent="Mozilla/5.0 (Windows NT 10.0; Win64; x64) AppleWebKit/537.36 (KHTML, like Gecko) Chrome/130.0.0.0 Safari/537.36" version="24.8.6">
  <diagram name="Page-1" id="2cc2dc42-3aac-f2a9-1cec-7a8b7cbee084">
    <mxGraphModel dx="3585" dy="2715" grid="1" gridSize="10" guides="1" tooltips="1" connect="1" arrows="1" fold="1" page="1" pageScale="1" pageWidth="1100" pageHeight="850" background="#ffffff" math="0" shadow="0">
      <root>
        <mxCell id="0" />
        <mxCell id="1" parent="0" />
        <mxCell id="7026571954dc6520-1" value="" style="strokeWidth=1;shadow=0;dashed=0;align=center;html=1;shape=mxgraph.mockup.containers.browserWindow;rSize=0;strokeColor=#666666;mainText=,;recursiveResize=0;rounded=0;labelBackgroundColor=none;fontFamily=Verdana;fontSize=12" parent="1" vertex="1">
          <mxGeometry x="30" y="30" width="1050" height="820" as="geometry" />
        </mxCell>
        <mxCell id="7026571954dc6520-2" value="Page 1" style="strokeWidth=1;shadow=0;dashed=0;align=center;html=1;shape=mxgraph.mockup.containers.anchor;fontSize=17;fontColor=#666666;align=left;" parent="7026571954dc6520-1" vertex="1">
          <mxGeometry x="60" y="12" width="110" height="26" as="geometry" />
        </mxCell>
        <mxCell id="7026571954dc6520-3" value="https://www.bidwise.com" style="strokeWidth=1;shadow=0;dashed=0;align=center;html=1;shape=mxgraph.mockup.containers.anchor;rSize=0;fontSize=17;fontColor=#666666;align=left;" parent="7026571954dc6520-1" vertex="1">
          <mxGeometry x="130" y="60" width="250" height="26" as="geometry" />
        </mxCell>
        <mxCell id="7026571954dc6520-4" value="Website Name" style="text;html=1;points=[];align=left;verticalAlign=top;spacingTop=-4;fontSize=30;fontFamily=Verdana" parent="7026571954dc6520-1" vertex="1">
          <mxGeometry x="15" y="170" width="245" height="50" as="geometry" />
        </mxCell>
        <mxCell id="7026571954dc6520-8" value="Section 2" style="text;html=1;points=[];align=left;verticalAlign=top;spacingTop=-4;fontSize=15;fontFamily=Verdana" parent="7026571954dc6520-1" vertex="1">
          <mxGeometry x="540" y="230" width="170" height="30" as="geometry" />
        </mxCell>
        <mxCell id="7026571954dc6520-9" value="Some default text to fill some space, and&amp;nbsp;&lt;span&gt;something more so there is more text&lt;/span&gt;" style="text;html=1;points=[];align=left;verticalAlign=top;spacingTop=-4;fontSize=12;fontFamily=Verdana;whiteSpace=wrap;" parent="7026571954dc6520-1" vertex="1">
          <mxGeometry x="540" y="260" width="240" height="40" as="geometry" />
        </mxCell>
        <mxCell id="7026571954dc6520-15" value="" style="verticalLabelPosition=bottom;shadow=0;dashed=0;align=center;html=1;verticalAlign=top;strokeWidth=1;shape=mxgraph.mockup.markup.line;strokeColor=#999999;rounded=0;labelBackgroundColor=none;fillColor=#ffffff;fontFamily=Verdana;fontSize=12;fontColor=#000000;" parent="7026571954dc6520-1" vertex="1">
          <mxGeometry y="310" width="1050" height="20" as="geometry" />
        </mxCell>
        <mxCell id="7026571954dc6520-16" value="Title 1" style="text;html=1;points=[];align=left;verticalAlign=top;spacingTop=-4;fontSize=15;fontFamily=Verdana" parent="7026571954dc6520-1" vertex="1">
          <mxGeometry x="20" y="330" width="170" height="30" as="geometry" />
        </mxCell>
        <mxCell id="7026571954dc6520-17" value="Lorem ipsum dolor sit amet, consectetur adipisicing elit, sed do eiusmod tempor incididunt ut labore et dolore magna aliqua. Ut enim ad minim veniam, quis nostrud exercitation ullamco laboris nisi ut aliquip ex ea commodo consequat. Duis aute irure dolor in reprehenderit in voluptate velit esse cillum dolore eu fugiat nulla pariatur. Excepteur sint occaecat cupidatat non proident, sunt in culpa qui officia deserunt mollit anim id est laborum.&#xa;Sed ut perspiciatis unde omnis iste natus error sit voluptatem accusantium doloremque laudantium, totam rem aperiam, eaque ipsa quae ab illo inventore veritatis et quasi architecto beatae vitae dicta sunt explicabo. Nemo enim ipsam voluptatem quia voluptas sit aspernatur aut odit aut fugit, sed quia consequuntur magni dolores eos qui ratione voluptatem sequi nesciunt. Neque porro quisquam est, qui dolorem ipsum quia dolor sit amet, consectetur, adipisci velit, sed quia non numquam eius modi tempora incidunt ut labore et dolore magnam aliquam quaerat voluptatem. Ut enim ad minima veniam, quis nostrum exercitationem ullam corporis suscipit laboriosam, nisi ut aliquid ex ea commodi consequatur? Quis autem vel eum iure reprehenderit qui in ea voluptate velit esse quam nihil molestiae consequatur, vel illum qui dolorem eum fugiat quo voluptas nulla pariatur?" style="text;spacingTop=-5;whiteSpace=wrap;html=1;align=left;fontSize=12;fontFamily=Helvetica;fillColor=none;strokeColor=none;rounded=0;shadow=1;labelBackgroundColor=none;" parent="7026571954dc6520-1" vertex="1">
          <mxGeometry x="20" y="370" width="570" height="240" as="geometry" />
        </mxCell>
        <mxCell id="7026571954dc6520-21" value="" style="verticalLabelPosition=bottom;shadow=0;dashed=0;align=center;html=1;verticalAlign=top;strokeWidth=1;shape=mxgraph.mockup.markup.line;strokeColor=#999999;rounded=0;labelBackgroundColor=none;fillColor=#ffffff;fontFamily=Verdana;fontSize=12;fontColor=#000000;" parent="7026571954dc6520-1" vertex="1">
          <mxGeometry y="720" width="1050" height="20" as="geometry" />
        </mxCell>
        <mxCell id="cv6NQTw70JXochvh1TJ5-1" value="HOME" style="rounded=0;whiteSpace=wrap;html=1;" vertex="1" parent="7026571954dc6520-1">
          <mxGeometry x="15" y="110" width="190" height="50" as="geometry" />
        </mxCell>
        <mxCell id="cv6NQTw70JXochvh1TJ5-2" value="BUY" style="rounded=0;whiteSpace=wrap;html=1;" vertex="1" parent="7026571954dc6520-1">
          <mxGeometry x="215" y="110" width="200" height="50" as="geometry" />
        </mxCell>
        <mxCell id="cv6NQTw70JXochvh1TJ5-3" value="SELL" style="rounded=0;whiteSpace=wrap;html=1;" vertex="1" parent="7026571954dc6520-1">
          <mxGeometry x="425" y="110" width="200" height="50" as="geometry" />
        </mxCell>
        <mxCell id="cv6NQTw70JXochvh1TJ5-4" value="ABOUT" style="rounded=0;whiteSpace=wrap;html=1;" vertex="1" parent="7026571954dc6520-1">
          <mxGeometry x="630" y="110" width="200" height="50" as="geometry" />
        </mxCell>
        <mxCell id="cv6NQTw70JXochvh1TJ5-5" value="CONTACT US" style="rounded=0;whiteSpace=wrap;html=1;" vertex="1" parent="7026571954dc6520-1">
          <mxGeometry x="840" y="110" width="200" height="50" as="geometry" />
        </mxCell>
        <mxCell id="cv6NQTw70JXochvh1TJ5-6" value="LOGO" style="text;html=1;points=[];align=left;verticalAlign=top;spacingTop=-4;fontSize=30;fontFamily=Verdana" vertex="1" parent="7026571954dc6520-1">
          <mxGeometry x="20" y="230" width="100" height="50" as="geometry" />
        </mxCell>
        <mxCell id="7026571954dc6520-33" value="&lt;div style=&quot;text-align: justify&quot;&gt;&lt;span&gt;Some default text to fill some space, and&amp;nbsp;&lt;/span&gt;&lt;span&gt;something more so there is more text&lt;/span&gt;&lt;/div&gt;&lt;div style=&quot;text-align: justify&quot;&gt;&lt;hr id=&quot;null&quot; style=&quot;text-align: justify&quot;&gt;&lt;span&gt;&lt;div style=&quot;text-align: justify&quot;&gt;&lt;span&gt;Some default text to fill some space, and&amp;nbsp;&lt;/span&gt;&lt;span&gt;something more so there is more text&lt;/span&gt;&lt;/div&gt;&lt;/span&gt;&lt;/div&gt;&lt;hr id=&quot;null&quot; style=&quot;text-align: justify&quot;&gt;&lt;span&gt;&lt;div style=&quot;text-align: justify&quot;&gt;&lt;span&gt;Some default text to fill some space, and&amp;nbsp;&lt;/span&gt;&lt;span&gt;something more so there is more text&lt;/span&gt;&lt;/div&gt;&lt;/span&gt;&lt;hr id=&quot;null&quot; style=&quot;text-align: justify&quot;&gt;&lt;span&gt;&lt;div style=&quot;text-align: justify&quot;&gt;&lt;span&gt;Some default text to fill some space, and&amp;nbsp;&lt;/span&gt;&lt;span&gt;something more so there is more text&lt;/span&gt;&lt;/div&gt;&lt;/span&gt;&lt;hr id=&quot;null&quot; style=&quot;text-align: left&quot;&gt;" style="whiteSpace=wrap;html=1;rounded=0;shadow=0;labelBackgroundColor=none;strokeWidth=1;fontFamily=Verdana;fontSize=12;align=center;verticalAlign=top;" parent="1" vertex="1">
          <mxGeometry x="490" y="-270" width="260" height="170" as="geometry" />
        </mxCell>
        <mxCell id="7026571954dc6520-32" value="Title 3" style="text;html=1;points=[];align=left;verticalAlign=top;spacingTop=-4;fontSize=15;fontFamily=Verdana" parent="1" vertex="1">
          <mxGeometry x="490" y="-300" width="170" height="30" as="geometry" />
        </mxCell>
        <mxCell id="cv6NQTw70JXochvh1TJ5-7" value="" style="strokeWidth=1;shadow=0;dashed=0;align=center;html=1;shape=mxgraph.mockup.containers.browserWindow;rSize=0;strokeColor=#666666;mainText=,;recursiveResize=0;rounded=0;labelBackgroundColor=none;fontFamily=Verdana;fontSize=12" vertex="1" parent="1">
          <mxGeometry x="1125" y="30" width="1050" height="820" as="geometry" />
        </mxCell>
        <mxCell id="cv6NQTw70JXochvh1TJ5-8" value="Page 1" style="strokeWidth=1;shadow=0;dashed=0;align=center;html=1;shape=mxgraph.mockup.containers.anchor;fontSize=17;fontColor=#666666;align=left;" vertex="1" parent="cv6NQTw70JXochvh1TJ5-7">
          <mxGeometry x="60" y="12" width="110" height="26" as="geometry" />
        </mxCell>
        <mxCell id="cv6NQTw70JXochvh1TJ5-9" value="https://www.bidwise.com/buy" style="strokeWidth=1;shadow=0;dashed=0;align=center;html=1;shape=mxgraph.mockup.containers.anchor;rSize=0;fontSize=17;fontColor=#666666;align=left;" vertex="1" parent="cv6NQTw70JXochvh1TJ5-7">
          <mxGeometry x="130" y="60" width="250" height="26" as="geometry" />
        </mxCell>
        <mxCell id="cv6NQTw70JXochvh1TJ5-10" value="Buy NPLs" style="text;html=1;points=[];align=left;verticalAlign=top;spacingTop=-4;fontSize=30;fontFamily=Verdana" vertex="1" parent="cv6NQTw70JXochvh1TJ5-7">
          <mxGeometry x="120" y="170" width="245" height="50" as="geometry" />
        </mxCell>
        <mxCell id="cv6NQTw70JXochvh1TJ5-13" value="" style="verticalLabelPosition=bottom;shadow=0;dashed=0;align=center;html=1;verticalAlign=top;strokeWidth=1;shape=mxgraph.mockup.markup.line;strokeColor=#999999;rounded=0;labelBackgroundColor=none;fillColor=#ffffff;fontFamily=Verdana;fontSize=12;fontColor=#000000;" vertex="1" parent="cv6NQTw70JXochvh1TJ5-7">
          <mxGeometry y="220" width="1050" height="20" as="geometry" />
        </mxCell>
        <mxCell id="cv6NQTw70JXochvh1TJ5-19" value="" style="verticalLabelPosition=bottom;shadow=0;dashed=0;align=center;html=1;verticalAlign=top;strokeWidth=1;shape=mxgraph.mockup.markup.line;strokeColor=#999999;rounded=0;labelBackgroundColor=none;fillColor=#ffffff;fontFamily=Verdana;fontSize=12;fontColor=#000000;" vertex="1" parent="cv6NQTw70JXochvh1TJ5-7">
          <mxGeometry y="720" width="1050" height="20" as="geometry" />
        </mxCell>
        <mxCell id="cv6NQTw70JXochvh1TJ5-23" value="HOME" style="rounded=0;whiteSpace=wrap;html=1;" vertex="1" parent="cv6NQTw70JXochvh1TJ5-7">
          <mxGeometry x="15" y="110" width="190" height="50" as="geometry" />
        </mxCell>
        <mxCell id="cv6NQTw70JXochvh1TJ5-24" value="BUY" style="rounded=0;whiteSpace=wrap;html=1;" vertex="1" parent="cv6NQTw70JXochvh1TJ5-7">
          <mxGeometry x="215" y="110" width="200" height="50" as="geometry" />
        </mxCell>
        <mxCell id="cv6NQTw70JXochvh1TJ5-25" value="SELL" style="rounded=0;whiteSpace=wrap;html=1;" vertex="1" parent="cv6NQTw70JXochvh1TJ5-7">
          <mxGeometry x="425" y="110" width="200" height="50" as="geometry" />
        </mxCell>
        <mxCell id="cv6NQTw70JXochvh1TJ5-26" value="ABOUT" style="rounded=0;whiteSpace=wrap;html=1;" vertex="1" parent="cv6NQTw70JXochvh1TJ5-7">
          <mxGeometry x="630" y="110" width="200" height="50" as="geometry" />
        </mxCell>
        <mxCell id="cv6NQTw70JXochvh1TJ5-27" value="CONTACT US" style="rounded=0;whiteSpace=wrap;html=1;" vertex="1" parent="cv6NQTw70JXochvh1TJ5-7">
          <mxGeometry x="840" y="110" width="200" height="50" as="geometry" />
        </mxCell>
        <mxCell id="cv6NQTw70JXochvh1TJ5-28" value="LOGO" style="text;html=1;points=[];align=left;verticalAlign=top;spacingTop=-4;fontSize=30;fontFamily=Verdana" vertex="1" parent="cv6NQTw70JXochvh1TJ5-7">
          <mxGeometry x="15" y="170" width="100" height="50" as="geometry" />
        </mxCell>
        <mxCell id="cv6NQTw70JXochvh1TJ5-30" value="" style="verticalLabelPosition=bottom;shadow=0;dashed=0;align=center;html=1;verticalAlign=top;strokeWidth=1;shape=mxgraph.mockup.navigation.scrollBar;strokeColor=#999999;barPos=97.25;fillColor2=#99ddff;strokeColor2=none;direction=north;" vertex="1" parent="cv6NQTw70JXochvh1TJ5-7">
          <mxGeometry x="1030" y="230" width="20" height="500" as="geometry" />
        </mxCell>
        <mxCell id="cv6NQTw70JXochvh1TJ5-42" value="" style="group" vertex="1" connectable="0" parent="cv6NQTw70JXochvh1TJ5-7">
          <mxGeometry x="180" y="270" width="520" height="180" as="geometry" />
        </mxCell>
        <mxCell id="cv6NQTw70JXochvh1TJ5-31" value="" style="rounded=1;whiteSpace=wrap;html=1;" vertex="1" parent="cv6NQTw70JXochvh1TJ5-42">
          <mxGeometry width="520" height="180" as="geometry" />
        </mxCell>
        <mxCell id="cv6NQTw70JXochvh1TJ5-32" value="&lt;font style=&quot;font-size: 18px;&quot;&gt;Seller&lt;/font&gt;" style="text;html=1;align=center;verticalAlign=middle;whiteSpace=wrap;rounded=0;" vertex="1" parent="cv6NQTw70JXochvh1TJ5-42">
          <mxGeometry x="10" y="10" width="80" height="40" as="geometry" />
        </mxCell>
        <mxCell id="cv6NQTw70JXochvh1TJ5-33" value="&lt;font style=&quot;font-size: 24px;&quot;&gt;20 000 €&lt;/font&gt;" style="text;html=1;align=center;verticalAlign=middle;whiteSpace=wrap;rounded=0;" vertex="1" parent="cv6NQTw70JXochvh1TJ5-42">
          <mxGeometry x="15" y="120" width="130" height="40" as="geometry" />
        </mxCell>
        <mxCell id="cv6NQTw70JXochvh1TJ5-34" value="Short description&amp;nbsp;&lt;span style=&quot;&quot;&gt;Lorem ipsum dolor sit amet, consectetur adipisicing elit, sed do eiusmod tempor incididunt ut labore et dolore magna aliqua. Ut enim ad minim veniam, quis nostrud exercitation ullamco laboris nisi ut aliquip&amp;nbsp;&lt;/span&gt;" style="rounded=0;whiteSpace=wrap;html=1;align=left;perimeterSpacing=5;strokeWidth=1;" vertex="1" parent="cv6NQTw70JXochvh1TJ5-42">
          <mxGeometry x="142.5" y="15" width="235" height="100" as="geometry" />
        </mxCell>
        <mxCell id="cv6NQTw70JXochvh1TJ5-35" value="" style="whiteSpace=wrap;html=1;aspect=fixed;" vertex="1" parent="cv6NQTw70JXochvh1TJ5-42">
          <mxGeometry x="25" y="45" width="65" height="65" as="geometry" />
        </mxCell>
        <mxCell id="cv6NQTw70JXochvh1TJ5-17" value="Make offer" style="strokeWidth=1;shadow=0;dashed=0;align=center;html=1;shape=mxgraph.mockup.buttons.button;strokeColor=#666666;mainText=;buttonStyle=round;fontSize=17;fontStyle=0;fillColor=none;whiteSpace=wrap;rounded=0;labelBackgroundColor=none;" vertex="1" parent="cv6NQTw70JXochvh1TJ5-42">
          <mxGeometry x="330" y="130" width="157.5" height="30" as="geometry" />
        </mxCell>
        <mxCell id="cv6NQTw70JXochvh1TJ5-16" value="Show insights" style="strokeWidth=1;shadow=0;dashed=0;align=center;html=1;shape=mxgraph.mockup.buttons.button;strokeColor=#666666;mainText=;buttonStyle=round;fontSize=17;fontStyle=0;fillColor=none;whiteSpace=wrap;rounded=0;labelBackgroundColor=none;" vertex="1" parent="cv6NQTw70JXochvh1TJ5-42">
          <mxGeometry x="142.5" y="130" width="157.5" height="30" as="geometry" />
        </mxCell>
        <mxCell id="cv6NQTw70JXochvh1TJ5-36" value="" style="verticalLabelPosition=bottom;verticalAlign=top;html=1;shape=mxgraph.basic.star;fillColor=#FFFF00;" vertex="1" parent="cv6NQTw70JXochvh1TJ5-42">
          <mxGeometry x="390" y="92.5" width="23.68" height="22.5" as="geometry" />
        </mxCell>
        <mxCell id="cv6NQTw70JXochvh1TJ5-37" value="" style="verticalLabelPosition=bottom;verticalAlign=top;html=1;shape=mxgraph.basic.star;fillColor=#FFFF00;" vertex="1" parent="cv6NQTw70JXochvh1TJ5-42">
          <mxGeometry x="413.68000000000006" y="92.5" width="23.68" height="22.5" as="geometry" />
        </mxCell>
        <mxCell id="cv6NQTw70JXochvh1TJ5-38" value="" style="verticalLabelPosition=bottom;verticalAlign=top;html=1;shape=mxgraph.basic.star" vertex="1" parent="cv6NQTw70JXochvh1TJ5-42">
          <mxGeometry x="437.36" y="92.5" width="23.68" height="22.5" as="geometry" />
        </mxCell>
        <mxCell id="cv6NQTw70JXochvh1TJ5-39" value="" style="verticalLabelPosition=bottom;verticalAlign=top;html=1;shape=mxgraph.basic.star" vertex="1" parent="cv6NQTw70JXochvh1TJ5-42">
          <mxGeometry x="461.0400000000001" y="92.5" width="23.68" height="22.5" as="geometry" />
        </mxCell>
        <mxCell id="cv6NQTw70JXochvh1TJ5-40" value="" style="verticalLabelPosition=bottom;verticalAlign=top;html=1;shape=mxgraph.basic.star" vertex="1" parent="cv6NQTw70JXochvh1TJ5-42">
          <mxGeometry x="484.72" y="92.5" width="23.68" height="22.5" as="geometry" />
        </mxCell>
        <mxCell id="cv6NQTw70JXochvh1TJ5-41" value="AI evaluation" style="text;html=1;align=center;verticalAlign=middle;whiteSpace=wrap;rounded=0;" vertex="1" parent="cv6NQTw70JXochvh1TJ5-42">
          <mxGeometry x="390" y="62.5" width="91.25" height="30" as="geometry" />
        </mxCell>
        <mxCell id="cv6NQTw70JXochvh1TJ5-43" value="" style="group" vertex="1" connectable="0" parent="cv6NQTw70JXochvh1TJ5-7">
          <mxGeometry x="180" y="460" width="520" height="180" as="geometry" />
        </mxCell>
        <mxCell id="cv6NQTw70JXochvh1TJ5-44" value="" style="rounded=1;whiteSpace=wrap;html=1;" vertex="1" parent="cv6NQTw70JXochvh1TJ5-43">
          <mxGeometry width="520" height="180" as="geometry" />
        </mxCell>
        <mxCell id="cv6NQTw70JXochvh1TJ5-45" value="&lt;font style=&quot;font-size: 18px;&quot;&gt;Seller&lt;/font&gt;" style="text;html=1;align=center;verticalAlign=middle;whiteSpace=wrap;rounded=0;" vertex="1" parent="cv6NQTw70JXochvh1TJ5-43">
          <mxGeometry x="10" y="10" width="80" height="40" as="geometry" />
        </mxCell>
        <mxCell id="cv6NQTw70JXochvh1TJ5-46" value="&lt;font style=&quot;font-size: 24px;&quot;&gt;20 000 €&lt;/font&gt;" style="text;html=1;align=center;verticalAlign=middle;whiteSpace=wrap;rounded=0;" vertex="1" parent="cv6NQTw70JXochvh1TJ5-43">
          <mxGeometry x="15" y="120" width="130" height="40" as="geometry" />
        </mxCell>
        <mxCell id="cv6NQTw70JXochvh1TJ5-47" value="Short description&amp;nbsp;&lt;span style=&quot;&quot;&gt;Lorem ipsum dolor sit amet, consectetur adipisicing elit, sed do eiusmod tempor incididunt ut labore et dolore magna aliqua. Ut enim ad minim veniam, quis nostrud exercitation ullamco laboris nisi ut aliquip&amp;nbsp;&lt;/span&gt;" style="rounded=0;whiteSpace=wrap;html=1;align=left;perimeterSpacing=5;strokeWidth=1;" vertex="1" parent="cv6NQTw70JXochvh1TJ5-43">
          <mxGeometry x="142.5" y="15" width="235" height="100" as="geometry" />
        </mxCell>
        <mxCell id="cv6NQTw70JXochvh1TJ5-48" value="" style="whiteSpace=wrap;html=1;aspect=fixed;" vertex="1" parent="cv6NQTw70JXochvh1TJ5-43">
          <mxGeometry x="25" y="45" width="65" height="65" as="geometry" />
        </mxCell>
        <mxCell id="cv6NQTw70JXochvh1TJ5-49" value="Make offer" style="strokeWidth=1;shadow=0;dashed=0;align=center;html=1;shape=mxgraph.mockup.buttons.button;strokeColor=#666666;mainText=;buttonStyle=round;fontSize=17;fontStyle=0;fillColor=none;whiteSpace=wrap;rounded=0;labelBackgroundColor=none;" vertex="1" parent="cv6NQTw70JXochvh1TJ5-43">
          <mxGeometry x="330" y="130" width="157.5" height="30" as="geometry" />
        </mxCell>
        <mxCell id="cv6NQTw70JXochvh1TJ5-50" value="Show insights" style="strokeWidth=1;shadow=0;dashed=0;align=center;html=1;shape=mxgraph.mockup.buttons.button;strokeColor=#666666;mainText=;buttonStyle=round;fontSize=17;fontStyle=0;fillColor=none;whiteSpace=wrap;rounded=0;labelBackgroundColor=none;" vertex="1" parent="cv6NQTw70JXochvh1TJ5-43">
          <mxGeometry x="142.5" y="130" width="157.5" height="30" as="geometry" />
        </mxCell>
        <mxCell id="cv6NQTw70JXochvh1TJ5-51" value="" style="verticalLabelPosition=bottom;verticalAlign=top;html=1;shape=mxgraph.basic.star;fillColor=#FFFF00;" vertex="1" parent="cv6NQTw70JXochvh1TJ5-43">
          <mxGeometry x="390" y="92.5" width="23.68" height="22.5" as="geometry" />
        </mxCell>
        <mxCell id="cv6NQTw70JXochvh1TJ5-52" value="" style="verticalLabelPosition=bottom;verticalAlign=top;html=1;shape=mxgraph.basic.star;fillColor=#FFFF00;" vertex="1" parent="cv6NQTw70JXochvh1TJ5-43">
          <mxGeometry x="413.68000000000006" y="92.5" width="23.68" height="22.5" as="geometry" />
        </mxCell>
        <mxCell id="cv6NQTw70JXochvh1TJ5-53" value="" style="verticalLabelPosition=bottom;verticalAlign=top;html=1;shape=mxgraph.basic.star" vertex="1" parent="cv6NQTw70JXochvh1TJ5-43">
          <mxGeometry x="437.36" y="92.5" width="23.68" height="22.5" as="geometry" />
        </mxCell>
        <mxCell id="cv6NQTw70JXochvh1TJ5-54" value="" style="verticalLabelPosition=bottom;verticalAlign=top;html=1;shape=mxgraph.basic.star" vertex="1" parent="cv6NQTw70JXochvh1TJ5-43">
          <mxGeometry x="461.0400000000001" y="92.5" width="23.68" height="22.5" as="geometry" />
        </mxCell>
        <mxCell id="cv6NQTw70JXochvh1TJ5-55" value="" style="verticalLabelPosition=bottom;verticalAlign=top;html=1;shape=mxgraph.basic.star" vertex="1" parent="cv6NQTw70JXochvh1TJ5-43">
          <mxGeometry x="484.72" y="92.5" width="23.68" height="22.5" as="geometry" />
        </mxCell>
        <mxCell id="cv6NQTw70JXochvh1TJ5-56" value="AI evaluation" style="text;html=1;align=center;verticalAlign=middle;whiteSpace=wrap;rounded=0;" vertex="1" parent="cv6NQTw70JXochvh1TJ5-43">
          <mxGeometry x="390" y="62.5" width="91.25" height="30" as="geometry" />
        </mxCell>
        <mxCell id="cv6NQTw70JXochvh1TJ5-57" value="" style="group" vertex="1" connectable="0" parent="cv6NQTw70JXochvh1TJ5-7">
          <mxGeometry x="180" y="650" width="520" height="180" as="geometry" />
        </mxCell>
        <mxCell id="cv6NQTw70JXochvh1TJ5-58" value="" style="rounded=1;whiteSpace=wrap;html=1;" vertex="1" parent="cv6NQTw70JXochvh1TJ5-57">
          <mxGeometry width="520" height="180" as="geometry" />
        </mxCell>
        <mxCell id="cv6NQTw70JXochvh1TJ5-59" value="&lt;font style=&quot;font-size: 18px;&quot;&gt;Seller&lt;/font&gt;" style="text;html=1;align=center;verticalAlign=middle;whiteSpace=wrap;rounded=0;" vertex="1" parent="cv6NQTw70JXochvh1TJ5-57">
          <mxGeometry x="10" y="10" width="80" height="40" as="geometry" />
        </mxCell>
        <mxCell id="cv6NQTw70JXochvh1TJ5-60" value="&lt;font style=&quot;font-size: 24px;&quot;&gt;20 000 €&lt;/font&gt;" style="text;html=1;align=center;verticalAlign=middle;whiteSpace=wrap;rounded=0;" vertex="1" parent="cv6NQTw70JXochvh1TJ5-57">
          <mxGeometry x="15" y="120" width="130" height="40" as="geometry" />
        </mxCell>
        <mxCell id="cv6NQTw70JXochvh1TJ5-61" value="Short description&amp;nbsp;&lt;span style=&quot;&quot;&gt;Lorem ipsum dolor sit amet, consectetur adipisicing elit, sed do eiusmod tempor incididunt ut labore et dolore magna aliqua. Ut enim ad minim veniam, quis nostrud exercitation ullamco laboris nisi ut aliquip&amp;nbsp;&lt;/span&gt;" style="rounded=0;whiteSpace=wrap;html=1;align=left;perimeterSpacing=5;strokeWidth=1;" vertex="1" parent="cv6NQTw70JXochvh1TJ5-57">
          <mxGeometry x="142.5" y="15" width="235" height="100" as="geometry" />
        </mxCell>
        <mxCell id="cv6NQTw70JXochvh1TJ5-62" value="" style="whiteSpace=wrap;html=1;aspect=fixed;" vertex="1" parent="cv6NQTw70JXochvh1TJ5-57">
          <mxGeometry x="25" y="45" width="65" height="65" as="geometry" />
        </mxCell>
        <mxCell id="cv6NQTw70JXochvh1TJ5-63" value="Make offer" style="strokeWidth=1;shadow=0;dashed=0;align=center;html=1;shape=mxgraph.mockup.buttons.button;strokeColor=#666666;mainText=;buttonStyle=round;fontSize=17;fontStyle=0;fillColor=none;whiteSpace=wrap;rounded=0;labelBackgroundColor=none;" vertex="1" parent="cv6NQTw70JXochvh1TJ5-57">
          <mxGeometry x="330" y="130" width="157.5" height="30" as="geometry" />
        </mxCell>
        <mxCell id="cv6NQTw70JXochvh1TJ5-64" value="Show insights" style="strokeWidth=1;shadow=0;dashed=0;align=center;html=1;shape=mxgraph.mockup.buttons.button;strokeColor=#666666;mainText=;buttonStyle=round;fontSize=17;fontStyle=0;fillColor=none;whiteSpace=wrap;rounded=0;labelBackgroundColor=none;" vertex="1" parent="cv6NQTw70JXochvh1TJ5-57">
          <mxGeometry x="142.5" y="130" width="157.5" height="30" as="geometry" />
        </mxCell>
        <mxCell id="cv6NQTw70JXochvh1TJ5-65" value="" style="verticalLabelPosition=bottom;verticalAlign=top;html=1;shape=mxgraph.basic.star;fillColor=#FFFF00;" vertex="1" parent="cv6NQTw70JXochvh1TJ5-57">
          <mxGeometry x="390" y="92.5" width="23.68" height="22.5" as="geometry" />
        </mxCell>
        <mxCell id="cv6NQTw70JXochvh1TJ5-66" value="" style="verticalLabelPosition=bottom;verticalAlign=top;html=1;shape=mxgraph.basic.star;fillColor=#FFFF00;" vertex="1" parent="cv6NQTw70JXochvh1TJ5-57">
          <mxGeometry x="413.68000000000006" y="92.5" width="23.68" height="22.5" as="geometry" />
        </mxCell>
        <mxCell id="cv6NQTw70JXochvh1TJ5-67" value="" style="verticalLabelPosition=bottom;verticalAlign=top;html=1;shape=mxgraph.basic.star" vertex="1" parent="cv6NQTw70JXochvh1TJ5-57">
          <mxGeometry x="437.36" y="92.5" width="23.68" height="22.5" as="geometry" />
        </mxCell>
        <mxCell id="cv6NQTw70JXochvh1TJ5-68" value="" style="verticalLabelPosition=bottom;verticalAlign=top;html=1;shape=mxgraph.basic.star" vertex="1" parent="cv6NQTw70JXochvh1TJ5-57">
          <mxGeometry x="461.0400000000001" y="92.5" width="23.68" height="22.5" as="geometry" />
        </mxCell>
        <mxCell id="cv6NQTw70JXochvh1TJ5-69" value="" style="verticalLabelPosition=bottom;verticalAlign=top;html=1;shape=mxgraph.basic.star" vertex="1" parent="cv6NQTw70JXochvh1TJ5-57">
          <mxGeometry x="484.72" y="92.5" width="23.68" height="22.5" as="geometry" />
        </mxCell>
        <mxCell id="cv6NQTw70JXochvh1TJ5-70" value="AI evaluation" style="text;html=1;align=center;verticalAlign=middle;whiteSpace=wrap;rounded=0;" vertex="1" parent="cv6NQTw70JXochvh1TJ5-57">
          <mxGeometry x="390" y="62.5" width="91.25" height="30" as="geometry" />
        </mxCell>
        <mxCell id="cv6NQTw70JXochvh1TJ5-71" value="" style="verticalLabelPosition=bottom;shadow=0;dashed=0;align=center;html=1;verticalAlign=top;strokeWidth=1;shape=mxgraph.mockup.misc.shoppingCart;strokeColor=#999999;" vertex="1" parent="cv6NQTw70JXochvh1TJ5-7">
          <mxGeometry x="980" y="170" width="50" height="50" as="geometry" />
        </mxCell>
        <mxCell id="7026571954dc6520-12" value="Search portfolios" style="text;html=1;points=[];align=left;verticalAlign=top;spacingTop=-4;fontSize=15;fontFamily=Verdana" parent="cv6NQTw70JXochvh1TJ5-7" vertex="1">
          <mxGeometry x="735" y="165" width="170" height="30" as="geometry" />
        </mxCell>
        <mxCell id="7026571954dc6520-14" value="Search" style="strokeWidth=1;shadow=0;dashed=0;align=center;html=1;shape=mxgraph.mockup.forms.searchBox;strokeColor=#999999;mainText=;strokeColor2=#008cff;fontColor=#666666;fontSize=17;align=left;spacingLeft=3;rounded=0;labelBackgroundColor=none;" parent="cv6NQTw70JXochvh1TJ5-7" vertex="1">
          <mxGeometry x="735" y="195" width="220" height="30" as="geometry" />
        </mxCell>
      </root>
    </mxGraphModel>
  </diagram>
</mxfile>
